{"title":"Sci.Fi.Science.Physics.of.The.Impossible.04of12.How.To.Teleport.","uid":5577655,"size":272245618,"categoryP":"video","categoryS":"tv_shows","magnet":"?xt=urn:btih:71b9c8d099deae44e3ada48fdc596e6ba62cfb20&amp;dn=Sci.Fi.Science.Physics.of.The.Impossible.04of12.How.To.Teleport.&amp;tr=udp%3A%2F%2Ftracker.openbittorrent.com%3A80&amp;tr=udp%3A%2F%2Fopen.demonii.com%3A1337&amp;tr=udp%3A%2F%2Ftracker.coppersurfer.tk%3A6969&amp;tr=udp%3A%2F%2Fexodus.desync.com%3A6969","seeders":0,"leechers":1,"uploader":"itvend","files":1,"time":1274434902,"description":"General\nComplete name                    : Sci.Fi.Science.Physics.of.The.Impossible.04of12.How.To.Teleport.HDTV.Xvid.Mp3.avi\nFormat                           : AVI\nFormat/Info                      : Audio Video Interleave\nFile size                        : 266 MiB\nDuration                         : 22mn 2s\nOverall bit rate                 : 1 689 Kbps\nWriting application              : Lavf52.32.0\n\nVideo\nID                               : 0\nFormat                           : MPEG-4 Visual\nFormat profile                   : AdvancedSimple@L5\nFormat settings, BVOP            : Yes\nFormat settings, QPel            : No\nFormat settings, GMC             : No warppoints\nFormat settings, Matrix          : Default (H.263)\nMuxing mode                      : Packed bitstream\nCodec ID                         : XVID\nCodec ID/Hint                    : XviD\nDuration                         : 22mn 1s\nBit rate                         : 1 548 Kbps\nWidth                            : 640 pixels\nHeight                           : 480 pixels\nDisplay aspect ratio             : 4:3\nFrame rate                       : 29.970 fps\nResolution                       : 24 bits\nColorimetry                      : 4:2:0\nScan type                        : Progressive\nBits/(Pixel*Frame)               : 0.168\nStream size                      : 244 MiB (92%)\nWriting library                  : XviD 1.2.1 (UTC 2008-12-04)\n\nAudio\nID                               : 1\nFormat                           : MPEG Audio\nFormat version                   : Version 1\nFormat profile                   : Layer 3\nFormat settings, Mode            : Joint stereo / MS Stereo\nCodec ID                         : 55\nCodec ID/Hint                    : MP3\nDuration                         : 22mn 2s\nBit rate mode                    : Constant\nBit rate                         : 128 Kbps\nChannel(s)                       : 2 channels\nSampling rate                    : 48.0 KHz\nResolution                       : 16 bits\nStream size                      : 20.2 MiB (8%)\nAlignment                        : Aligned on interleaves\nInterleave, duration             : 24 ms (0.72 video frame)\n","torrent":{"xt":"urn:btih:71b9c8d099deae44e3ada48fdc596e6ba62cfb20","amp;dn":"Sci.Fi.Science.Physics.of.The.Impossible.04of12.How.To.Teleport.","amp;tr":["udp%3A%2F%2Ftracker.openbittorrent.com%3A80","udp%3A%2F%2Fopen.demonii.com%3A1337","udp%3A%2F%2Ftracker.coppersurfer.tk%3A6969","udp%3A%2F%2Fexodus.desync.com%3A6969"],"infoHash":"71b9c8d099deae44e3ada48fdc596e6ba62cfb20","infoHashBuffer":{"type":"Buffer","data":[113,185,200,208,153,222,174,68,227,173,164,143,220,89,110,107,166,44,251,32]},"announce":[],"urlList":[]}}